<svg xmlns="http://www.w3.org/2000/svg" xmlns:xlink="http://www.w3.org/1999/xlink" viewBox="0 0 180.48 57.81"><defs><style>.cls-1{isolation:isolate;}.cls-2{fill:url(#Degradado_sin_nombre_4);}.cls-3{fill:url(#Degradado_sin_nombre_10);}.cls-4{fill:url(#Degradado_sin_nombre_17);}.cls-5{fill:url(#Degradado_sin_nombre_17-2);}.cls-6{fill:url(#Degradado_sin_nombre_10-2);}.cls-7{fill:url(#Degradado_sin_nombre_37);}.cls-8{fill:url(#Degradado_sin_nombre_10-3);}.cls-9{fill:url(#Degradado_sin_nombre_50);}.cls-10{fill:url(#Degradado_sin_nombre_33);}.cls-11{fill:url(#Degradado_sin_nombre_26);}.cls-12{fill:#19c0db;opacity:0.15;mix-blend-mode:multiply;}.cls-13{opacity:0.24;fill:url(#Degradado_sin_nombre_43);}.cls-14{fill:url(#Degradado_sin_nombre_17-3);}.cls-15{fill:#fff;}</style><linearGradient id="Degradado_sin_nombre_4" x1="48.75" y1="11.71" x2="32.63" y2="49.1" gradientUnits="userSpaceOnUse"><stop offset="0" stop-color="#73cee5"/><stop offset="0.04" stop-color="#6dcce5"/><stop offset="0.32" stop-color="#49c1e6"/><stop offset="0.58" stop-color="#2eb9e7"/><stop offset="0.82" stop-color="#1fb5e8"/><stop offset="1" stop-color="#19b3e8"/></linearGradient><linearGradient id="Degradado_sin_nombre_10" x1="30.69" y1="24.05" x2="34.62" y2="57.35" gradientUnits="userSpaceOnUse"><stop offset="0" stop-color="#73cee5"/><stop offset="0.05" stop-color="#6ccce5"/><stop offset="0.33" stop-color="#48c1e6"/><stop offset="0.59" stop-color="#2db9e7"/><stop offset="0.82" stop-color="#1eb5e8"/><stop offset="1" stop-color="#18b3e8"/></linearGradient><linearGradient id="Degradado_sin_nombre_17" x1="31.27" y1="56.58" x2="31.27" y2="8.07" gradientUnits="userSpaceOnUse"><stop offset="0" stop-color="#57c9e9"/><stop offset="0.52" stop-color="#29acda"/><stop offset="1" stop-color="#0395ce"/></linearGradient><linearGradient id="Degradado_sin_nombre_17-2" x1="28.88" y1="-1.21" x2="27.99" y2="72.96" xlink:href="#Degradado_sin_nombre_17"/><linearGradient id="Degradado_sin_nombre_10-2" x1="27.68" y1="3.53" x2="27.68" y2="57.29" xlink:href="#Degradado_sin_nombre_10"/><linearGradient id="Degradado_sin_nombre_37" x1="17.88" y1="54.48" x2="0.86" y2="-3.11" gradientUnits="userSpaceOnUse"><stop offset="0" stop-color="#18b3e8"/><stop offset="1" stop-color="#73cee5"/></linearGradient><linearGradient id="Degradado_sin_nombre_10-3" x1="14.49" y1="-4.94" x2="14.49" y2="61.08" xlink:href="#Degradado_sin_nombre_10"/><linearGradient id="Degradado_sin_nombre_50" x1="15.65" y1="60.8" x2="15.82" y2="24.34" gradientUnits="userSpaceOnUse"><stop offset="0.01" stop-color="#0395ce"/><stop offset="0.53" stop-color="#18b3e8"/><stop offset="1" stop-color="#84d3e8"/></linearGradient><linearGradient id="Degradado_sin_nombre_33" x1="-0.1" y1="-8.14" x2="35.08" y2="29.29" xlink:href="#Degradado_sin_nombre_37"/><linearGradient id="Degradado_sin_nombre_26" x1="13.51" y1="1.88" x2="13.51" y2="34.07" gradientUnits="userSpaceOnUse"><stop offset="0.11" stop-color="#18b3e8"/><stop offset="1" stop-color="#73cee5" stop-opacity="0.5"/></linearGradient><linearGradient id="Degradado_sin_nombre_43" y1="28.83" x2="14.01" y2="28.83" gradientUnits="userSpaceOnUse"><stop offset="0" stop-color="#0395ce"/><stop offset="1" stop-color="#57c9e9"/></linearGradient><linearGradient id="Degradado_sin_nombre_17-3" x1="47.73" y1="8.48" x2="42.05" y2="48.04" xlink:href="#Degradado_sin_nombre_17"/></defs><title>Asset 1</title><g class="cls-1"><g id="Layer_2" data-name="Layer 2"><g id="Mantenimiento"><path class="cls-2" d="M38.32,50c-.32-1.79-1.21-9,4.1-16.89,7.18-8.64,7-12.31,7.55-14.71-1.49-1.7-6.73-6.35-6.73-6.35s.61,4.71-8.49,18.77a32.49,32.49,0,0,0-4.55,21.5C31.51,52,37.1,50.35,38.32,50Z"/><path class="cls-3" d="M37.59,21.71c-4.47,13-3.61,21.73.58,28.34l-8.82,2.52C24.23,43.24,24,33,27.59,18.31Z"/><path class="cls-4" d="M33.43,51.4C28,40,35.25,29.75,37.59,21.71l-10-3.4C23.68,31.61,24,43.16,29.3,52.58Z"/><path class="cls-5" d="M41,10.19s-.17,7-6.6,17.78c-5.06,7.8-10.78,16.69-10.93,26.29L17,56.09c-1.92-6.9-1.5-15.37,6.61-29.95C28.19,17.54,31.68,9.61,30.44,3,34.33,5.27,41,10.19,41,10.19Z"/><path class="cls-6" d="M41,10.19s1,5.19-14.33,22.25c-7.53,9-9.72,17.83-10.19,23.82l-1.74.49c-1-6.74-.29-17.68,8.92-30.61C33,9.76,30.44,3,30.44,3,34.45,5.56,38.12,8,41,10.19Z"/><path class="cls-7" d="M13.86,4.08C10,1.14,2.68.15,2.68.15,2.56.66-7,31.15,11,57.81l4.42-1.27C3,44.19-4.71,22.77,13.86,4.08Z"/><path class="cls-8" d="M24.57.13s4.6,7.11-5.88,26.49c-3.85,6-5.12,17.25-.22,29.06L12.4,57.41C-3.86,41.4,6.9,16,6.9,16,6.93,15.55,12.8-1.66,24.57.13Z"/><path class="cls-9" d="M30.09,21.38,28.52,19.7a8.25,8.25,0,0,1-1.86-4.65,11.59,11.59,0,0,0-.57-3.3L26,11.56h0A11.34,11.34,0,0,0,15.33,4,8.2,8.2,0,0,0,14,4.09,15.14,15.14,0,0,0,2.68.15,18.4,18.4,0,0,0,4.13,13.56l0,.18c-3.93,11.58-5.93,24.67,7.16,44l1-.29C5.58,43,8.33,29.14,13.82,26.67c3.33-1.45,5.42-.13,6.57.19,2.87.95,4.84,1.45,6.41-.19,0,0,2.3-2.31,3.25-3.31A1.43,1.43,0,0,0,30.09,21.38Z"/><path class="cls-10" d="M14,4.09a15.86,15.86,0,0,1,9,6.61c2.94,4.12,2.35,10.1,4.21,11,1,.41,2.09.07,2.65.4,0,0,1.26.48-.9,2.34l-2.17,2.2s3.53-5.47-4-6.35C20.76,11.37,15.62,4.92,14,4.09Z"/><path class="cls-11" d="M22.83,20.32a6.42,6.42,0,0,0-4.09-5.07C13.92,13.5,7.51,17.48,5,26.67c-2.63,8.89,1.6,22.41,3,25.91a33.26,33.26,0,0,0,1.88,3.54C1.57,36.31,9.29,19.77,22.83,20.32Z"/><path class="cls-12" d="M2.68.15s6.83.09,9.19,6.38c3.19,7.94,1.32,14.27,11,13.79a36.23,36.23,0,0,0-6.59-14C10.19-.94,2.68.15,2.68.15Z"/><path class="cls-13" d="M14,4.06A15,15,0,0,0,2.68.15C1.93,2.2-6.44,31.82,10.85,57.56-.23,40.57,1.13,16.65,14,4.06Z"/><path class="cls-14" d="M50,18.41C49,27.3,42.08,31.81,39.83,38c.75-7.73,9.3-16.25,5.45-24.07C47.21,15.66,48.56,16.91,50,18.41Z"/><polygon class="cls-15" points="85.87 41.48 77.05 20.65 68.23 41.47 59.11 19.92 55.23 19.92 68.17 51.28 77.05 30 85.87 51.28 98.87 19.92 95.05 19.92 85.87 41.48"/><path class="cls-15" d="M101.61,12.29a2.15,2.15,0,1,0,0,4.3,2.15,2.15,0,1,0,0-4.3Z"/><rect class="cls-15" x="99.44" y="20.04" width="4.02" height="29.81"/><path class="cls-15" d="M134.15,35.87c-.18-9.15-6.44-16.06-14.56-16.06a14.81,14.81,0,0,0-14.57,15,14.81,14.81,0,0,0,14.57,15,14.41,14.41,0,0,0,10-4l1.57-1.5-5.76-.1-.21.12a11.93,11.93,0,0,1-5.59,1.62c-4.45,0-9.32-2.84-10.61-9.16h25.19Zm-25.12-3c1.39-6.76,6.29-9.21,10.56-9.21,5,0,8.84,3.5,10.32,9.21Z"/><path class="cls-15" d="M159.27,25.38,158,24.26h0A13.89,13.89,0,0,0,149.12,21a14.22,14.22,0,0,0-14,14.4,14.22,14.22,0,0,0,14,14.4A13.89,13.89,0,0,0,158,46.62l1.32-1.11v4.33h4V13.37h-4Zm-10.15,0a9.82,9.82,0,0,1,10,8.66v2.78a10,10,0,0,1-19.93-1.39A9.77,9.77,0,0,1,149.12,25.39Z"/><rect class="cls-15" x="168.21" y="20.04" width="4.02" height="29.81"/><path class="cls-15" d="M170.38,12.29a2.15,2.15,0,1,0,0,4.3,2.15,2.15,0,1,0,0-4.3Z"/><path class="cls-15" d="M178.31,16.59a2.15,2.15,0,1,0,0-4.3,2.15,2.15,0,1,0,0,4.3Z"/><rect class="cls-15" x="176.13" y="20.04" width="4.02" height="29.81"/></g></g></g></svg>